<?xml version="1.0" encoding="UTF-8" standalone="no"?>
<!-- Created with Inkscape (http://www.inkscape.org/) -->

<svg
   width="32"
   height="32"
   viewBox="0 0 32 32"
   version="1.1"
   id="svg1"
   sodipodi:docname="chunck.svg"
   inkscape:version="1.4.2 (f4327f4, 2025-05-13)"
   xmlns:inkscape="http://www.inkscape.org/namespaces/inkscape"
   xmlns:sodipodi="http://sodipodi.sourceforge.net/DTD/sodipodi-0.dtd"
   xmlns="http://www.w3.org/2000/svg"
   xmlns:svg="http://www.w3.org/2000/svg">
  <sodipodi:namedview
     id="namedview1"
     pagecolor="#505050"
     bordercolor="#ffffff"
     borderopacity="1"
     inkscape:showpageshadow="0"
     inkscape:pageopacity="0"
     inkscape:pagecheckerboard="1"
     inkscape:deskcolor="#505050"
     inkscape:zoom="25.21875"
     inkscape:cx="16"
     inkscape:cy="16"
     inkscape:window-width="1920"
     inkscape:window-height="1009"
     inkscape:window-x="1912"
     inkscape:window-y="-8"
     inkscape:window-maximized="1"
     inkscape:current-layer="svg1" />
  <defs
     id="defs1" />
  <path
     id="path2"
     style="opacity:0.89;stroke:#000000;stroke-width:0.25;paint-order:markers stroke fill"
     d="m 27.479553,25.219332 a 4.3816605,4.480793 0 0 1 -4.38166,4.480793 4.3816605,4.480793 0 0 1 -4.381661,-4.480793 4.3816605,4.480793 0 0 1 4.381661,-4.480793 4.3816605,4.480793 0 0 1 4.38166,4.480793 z" />
  <g
     id="g4">
    <path
       id="path1"
       style="opacity:0.89;stroke:#000000;stroke-width:2.41818;paint-order:markers stroke fill"
       d="M 15.9,1.2 A 14.7,14 0 0 0 1.2,15.2 14.7,14 0 0 0 15.9,29.2 a 14.7,14 0 0 0 0.2,0 11.9,11.5 0 0 1 -0.2,-1.5 11.9,11.5 0 0 1 11.9,-11.5 11.9,11.5 0 0 1 2.8,0.4 14.7,14 0 0 0 0,-1.3 A 14.7,14 0 0 0 15.9,1.2 Z" />
    <path
       id="path3"
       style="opacity:0.89;stroke:#000000;stroke-width:0.25;paint-order:markers stroke fill"
       d="m 27.479553,25.219332 a 4.3816605,4.480793 0 0 1 -4.38166,4.480793 4.3816605,4.480793 0 0 1 -4.381661,-4.480793 4.3816605,4.480793 0 0 1 4.381661,-4.480793 4.3816605,4.480793 0 0 1 4.38166,4.480793 z" />
  </g>
  <path
     id="path4"
     style="opacity:0.89;stroke:#000000;stroke-width:2.41818;paint-order:markers stroke fill"
     d="M 15.9,1.2 A 14.7,14 0 0 0 1.2,15.2 14.7,14 0 0 0 15.9,29.2 a 14.7,14 0 0 0 0.2,0 11.9,11.5 0 0 1 -0.2,-1.5 11.9,11.5 0 0 1 11.9,-11.5 11.9,11.5 0 0 1 2.8,0.4 14.7,14 0 0 0 0,-1.3 A 14.7,14 0 0 0 15.9,1.2 Z" />
</svg>
