<?xml version="1.0" encoding="UTF-8" standalone="no"?>
<!-- Created with Inkscape (http://www.inkscape.org/) -->

<svg
   width="32"
   height="32"
   viewBox="0 0 32 32"
   version="1.1"
   id="svg1"
   xmlns="http://www.w3.org/2000/svg"
   xmlns:svg="http://www.w3.org/2000/svg">
  <defs
     id="defs1" />
  <path
     id="path1"
     style="opacity:0.89;stroke:#000000;stroke-width:2.41818;paint-order:markers stroke fill"
     d="M 15.9,1.2 A 14.7,14 0 0 0 1.2,15.2 14.7,14 0 0 0 15.9,29.2 a 14.7,14 0 0 0 0.2,0 11.9,11.5 0 0 1 -0.2,-1.5 11.9,11.5 0 0 1 11.9,-11.5 11.9,11.5 0 0 1 2.8,0.4 14.7,14 0 0 0 0,-1.3 A 14.7,14 0 0 0 15.9,1.2 Z" />
</svg>
