<?xml version="1.0" encoding="UTF-8" standalone="no"?>
<!-- Created with Inkscape (http://www.inkscape.org/) -->

<svg
   width="512"
   height="512"
   viewBox="0 0 512 512"
   version="1.1"
   id="svg1"
   inkscape:version="1.4.2 (f4327f4, 2025-05-13)"
   sodipodi:docname="icon.svg"
   xml:space="preserve"
   xmlns:inkscape="http://www.inkscape.org/namespaces/inkscape"
   xmlns:sodipodi="http://sodipodi.sourceforge.net/DTD/sodipodi-0.dtd"
   xmlns="http://www.w3.org/2000/svg"
   xmlns:svg="http://www.w3.org/2000/svg"><sodipodi:namedview
     id="namedview1"
     pagecolor="#505050"
     bordercolor="#ffffff"
     borderopacity="1"
     inkscape:showpageshadow="0"
     inkscape:pageopacity="0"
     inkscape:pagecheckerboard="1"
     inkscape:deskcolor="#505050"
     inkscape:document-units="px"
     inkscape:zoom="0.27863045"
     inkscape:cx="-646.01697"
     inkscape:cy="-116.64195"
     inkscape:window-width="1920"
     inkscape:window-height="1009"
     inkscape:window-x="3832"
     inkscape:window-y="-8"
     inkscape:window-maximized="1"
     inkscape:current-layer="svg1" /><defs
     id="defs1" /><rect
     style="opacity:0.357942;fill:#2d2d2d;stroke-width:0.996748"
     id="rect14"
     width="512"
     height="512"
     x="0"
     y="0" /><g
     inkscape:label="Layer 1"
     inkscape:groupmode="layer"
     id="layer1"
     style="opacity:1"><path
       style="fill:#000000"
       d="m 186.02848,-403.58188 v 2 l 250,100 -45,-95 v -12 l 45,-95 z"
       id="path1"
       sodipodi:nodetypes="ccccccc" /></g><circle
     style="fill:#2d2d2d"
     id="path3"
     cx="254.96986"
     cy="254.44295"
     r="183.99008" /><ellipse
     style="fill:#bfbfbf;stroke-width:0.337247"
     id="path5-8"
     cx="244.2182"
     cy="420.08636"
     rx="1.625"
     ry="1.5" /><circle
     style="fill:#2d2d2d"
     id="path2"
     cx="254.96986"
     cy="254.44295"
     r="124.98637" /><circle
     style="fill:#ffeeaa"
     id="path8"
     cx="254.50113"
     cy="257.46939"
     r="33.198093" /><path
     d="m 254.50243,168.64243 a 110.58556,88.827418 0 0 0 -110.58672,88.82698 110.58556,88.827418 0 0 0 110.58672,88.82696 110.58556,88.827418 0 0 0 110.58412,-88.82696 110.58556,88.827418 0 0 0 -110.58412,-88.82698 z m 0,54.96245 a 31.681273,31.089594 0 0 1 31.68174,31.08739 31.681273,31.089594 0 0 1 -31.68174,31.08981 31.681273,31.089594 0 0 1 -31.6817,-31.08981 31.681273,31.089594 0 0 1 31.6817,-31.08739 z"
     style="opacity:0.357942;fill:#bdcdd4;stroke-width:1.28408"
     id="path14" /><ellipse
     style="fill:#729fcf"
     id="path5"
     cx="194.45444"
     cy="215.29199"
     rx="5"
     ry="4.2862453" /><path
     sodipodi:type="star"
     style="fill:#cc0000"
     id="path4"
     inkscape:flatsided="false"
     sodipodi:sides="5"
     sodipodi:cx="975.78186"
     sodipodi:cy="54.562576"
     sodipodi:r1="22.196634"
     sodipodi:r2="9.5175982"
     sodipodi:arg1="-1.5707963"
     sodipodi:arg2="-0.94247783"
     inkscape:rounded="0.043280637"
     inkscape:randomized="0"
     d="m 975.78186,32.365942 c 0.67253,0 5.05022,14.101435 5.5943,14.496735 0.54409,0.395301 15.30813,0.201153 15.51595,0.840763 0.20783,0.639609 -11.85065,9.160626 -12.05848,9.800236 -0.20782,0.639609 4.53917,14.621054 3.99508,15.016355 -0.54408,0.395301 -12.37432,-8.439857 -13.04685,-8.439857 -0.67252,0 -12.50277,8.835157 -13.04685,8.439856 -0.54409,-0.3953 4.2029,-14.376744 3.99508,-15.016354 -0.20783,-0.639609 -12.2663,-9.160628 -12.05848,-9.800237 0.20782,-0.63961 14.97186,-0.445461 15.51595,-0.840761 0.54408,-0.395301 4.92178,-14.496736 5.5943,-14.496736 z"
     inkscape:transform-center-x="-0.3368768"
     inkscape:transform-center-y="-1.3108897"
     transform="matrix(0.50064932,0.00160161,-0.00160161,0.50064932,-233.2858,403.64995)" /><g
     id="g11"
     transform="rotate(8.5378976,-537.76781,4289.4292)"
     style="fill:#204a87"><path
       style="opacity:1;fill:#204a87"
       d="m -304.34606,296.59226 c 0,0 53.08823,-1.50909 75.8142,-18.66523 15.41023,-11.63339 28.84231,-50.23363 28.84231,-50.23363 l -36.27385,-91.73698 c 0,0 6.62859,41.48348 3.77585,61.43511 -2.66212,18.61849 -9.66116,37.25771 -20.68787,52.49407 -14.87809,20.55807 -51.47064,46.70666 -51.47064,46.70666 z"
       id="path11"
       sodipodi:nodetypes="csccssc" /><path
       style="opacity:1;fill:#204a87"
       d="m -262.43207,95.211812 c 0,0 -31.03986,-46.990359 -64.92633,-60.111198 -31.33199,-12.131748 -62.20224,-8.437897 -92.81641,16.461089 -24.92046,20.268205 -41.20291,67.841417 -41.20291,67.841417 0,0 43.66939,-37.480148 69.25934,-48.038477 13.86285,-5.719769 29.57106,-8.159292 44.49295,-6.665413 29.85184,2.988564 85.19336,30.512582 85.19336,30.512582 z"
       id="path11-5"
       sodipodi:nodetypes="csscssc" /><path
       style="opacity:1;fill:#204a87"
       d="m -360.16912,306.15582 c 0,0 -56.42981,13.63212 -85.62907,3.40322 -19.56521,-6.85396 -46.93694,-40.8031 -46.93694,-40.8031 l 15.06158,-96.66435 c 0,0 1.41147,33.74217 8.73363,51.3663 8.72883,21.00991 25.26905,39.03612 43.59886,52.51302 20.98794,15.43128 65.17194,30.18491 65.17194,30.18491 z"
       id="path11-2"
       sodipodi:nodetypes="csccssc" /></g><path
     style="fill:#ffcc00;stroke-width:1.07497"
     d="m 265.09316,434.10549 c 0,0 78.06928,-25.14275 106.80339,-72.52798 16.70938,-27.55534 -2.67472,-36.98264 9.24667,-55.87795 19.51296,-30.92787 18.59987,-83.24862 75.20636,-77.06833 -11.13975,60.94266 -14.92616,88.6639 -39.69417,122.05875 -27.19114,36.66199 -74.96073,61.32826 -110.10197,73.20694 -9.19665,3.10873 -41.46028,10.20857 -41.46028,10.20857 z"
     id="path10"
     sodipodi:nodetypes="csscasc" /><path
     style="fill:#ffcc00;stroke-width:1.02416"
     d="m 245.63794,435.03721 c 0,0 -77.55133,-22.9743 -106.0948,-66.27276 -16.59852,-25.17882 2.65698,-33.79305 -9.18533,-51.05872 -19.38349,-28.26048 -18.47646,-76.06879 -74.707387,-70.42153 11.065844,55.68663 14.827136,81.01703 39.43081,111.53173 27.010737,33.50005 74.463407,56.03896 109.371497,66.89316 9.13563,2.84061 41.18521,9.32812 41.18521,9.32812 z"
     id="path10-14"
     sodipodi:nodetypes="csscasc" /></svg>
