<?xml version="1.0" encoding="UTF-8" standalone="no"?>
<!-- Created with Inkscape (http://www.inkscape.org/) -->

<svg
   width="800"
   height="600"
   viewBox="0 0 211.66667 158.75"
   version="1.1"
   id="svg1"
   xmlns="http://www.w3.org/2000/svg"
   xmlns:svg="http://www.w3.org/2000/svg">
  <defs
     id="defs1" />
  <path
     style="fill:#808080;stroke-width:0.264583"
     d="m 55.177419,74.870968 -23.241936,7.451611 0.53226,18.096771 9.935482,13.48387 19.516129,9.75807 23.774194,-7.98387 -4.231001,-22.523344 -12.241935,-8.693547 3.698742,-14.734723 -6.032257,-4.435485 z"
     id="path2" />
  <path
     style="fill:#808080;stroke-width:0.264583"
     d="m 42.935482,72.741934 c 0,0 -23.119143,-7.315818 -24.483869,-8.87097 L 3.193547,46.483874 0,23.774194 15.612901,7.451613 C 26.849107,2.326609 67.064513,4.967742 67.064513,4.967742 l 15.967745,12.419352 4.860114,11.83883 17.416008,2.738474 L 116.38709,16.677424 126.96213,5.7493785 144.41934,0 l 16.67742,8.516127 16.25807,14.548387 -15.54839,20.935481 1.77419,23.064519 -15.96774,23.41935 -32.64516,9.935486 L 80.548388,83.032254 78.630906,56.80986 56.584163,60.545207 Z"
     id="path1" />
</svg>
